# xmcd
#
# Track frame offsets:
# 150
# 12904
# 25671
# 39412
# 51970
# 66155
# 78651
# 90071
# 104040
# 115451
# 127497
# 140022
# 152263
# 175282
# 186332
# 198898
# 209853
# 223391
# 233324
# 245455
# 255178
# 267465
# 279844
#
# Disc length: 3878 seconds
#
#
# Revision: 0
# Processed by: cddbd v1.5PL3 Copyright (c) Steve Scherf et al.
# Submitted via: FreeRIP 2.60 
#
DISCID=4e0f2417
DTITLE=The Swan Silvertones - The Swan Silvertones
DYEAR=1962
DGENRE=Gospel
TTITLE0=Mary Don't you Weep
TTITLE1=Jesus Remembers
TTITLE2=How I got Over
TTITLE3=That day on Calvary
TTITLE4=Sinner Man
TTITLE5=A lady called Mother
TTITLE6=My Rock
TTITLE7=The Lord's Prayer
TTITLE8=Jesus is a Friend of Mine
TTITLE9=Come Out of the Wilderness
TTITLE10=When Jesus Comes
TTITLE11=Great day in December
TTITLE12=Saviour Pass Me Not
TTITLE13=Brighter Day Ahead
TTITLE14=Get Right With God
TTITLE15=What About You
TTITLE16=Take The Lord With You
TTITLE17=Bye and Bye
TTITLE18=Feed Me Jesus
TTITLE19=Blessed Quietness
TTITLE20=Peace In The Valley
TTITLE21=Amazing Grace
TTITLE22=Carry Me Home
EXTD=
EXTT0=
EXTT1=
EXTT2=
EXTT3=
EXTT4=
EXTT5=
EXTT6=
EXTT7=
EXTT8=
EXTT9=
EXTT10=
EXTT11=
EXTT12=
EXTT13=
EXTT14=
EXTT15=
EXTT16=
EXTT17=
EXTT18=
EXTT19=
EXTT20=
EXTT21=
EXTT22=
PLAYORDER=
